<?xml version="1.0" encoding="utf-8"?>
<!-- Generator: Adobe Illustrator 18.1.0, SVG Export Plug-In . SVG Version: 6.00 Build 0)  -->
<svg version="1.1" id="Layer_1" xmlns="http://www.w3.org/2000/svg" xmlns:xlink="http://www.w3.org/1999/xlink" x="0px" y="0px"
	 viewBox="0 0 612 608" enable-background="new 0 0 612 608" xml:space="preserve">
<path d="M535.5,21.5H430.9v51H496l-94.2,94.2c-27-19.2-60.1-30.4-95.9-30.4c-37.1,0-71.2,12.1-98.8,32.5l-9.2-9.5l38.1-38.1 l-36-36.1l-37.5,37.5l-48.7-50.2h67.3v-51H25.5v51v102h51v-67.1l49.9,51.4l-34.6,34.6l36.1,36.1l34-34l9.4,9.7 c-19.6,27.2-31.2,60.7-31.2,97c0,83.1,60.6,151.6,140.2,163.8v45.3h-51v51h51V608h51v-45.9h48.4v-51h-48.4v-45.3 c79.6-12.2,140.2-80.7,140.2-163.8c0-37.5-12.4-72.1-33.2-99.8l97-97v69.3h51v-153H535.5z M76.5,72.5h0.6l-0.6,0.6V72.5z M306,416.8 c-63.8,0-114.8-51-114.8-114.8s51-114.8,114.8-114.8c31.6,0,60.1,12.5,80.8,33l1,1c20.4,20.7,33,49.1,33,80.8 C420.8,365.8,369.8,416.8,306,416.8z M534.8,72.5h0.7v0.7L534.8,72.5z"/> 

</svg>
